<mxfile host="65bd71144e">
    <diagram name="Page-1" id="13e1069c-82ec-6db2-03f1-153e76fe0fe0">
        <mxGraphModel dx="1044" dy="810" grid="1" gridSize="10" guides="1" tooltips="1" connect="1" arrows="1" fold="1" page="1" pageScale="1" pageWidth="1100" pageHeight="850" background="none" math="0" shadow="0">
            <root>
                <mxCell id="0"/>
                <mxCell id="1" parent="0"/>
                <mxCell id="7baba1c4bc27f4b0-2" value=":Service" style="shape=umlLifeline;perimeter=lifelinePerimeter;whiteSpace=wrap;html=1;container=1;collapsible=0;recursiveResize=0;outlineConnect=0;rounded=1;shadow=0;comic=0;labelBackgroundColor=none;strokeWidth=1;fontFamily=Verdana;fontSize=12;align=center;" parent="1" vertex="1">
                    <mxGeometry x="300" y="80" width="100" height="700" as="geometry"/>
                </mxCell>
                <mxCell id="7baba1c4bc27f4b0-10" value="" style="html=1;points=[];perimeter=orthogonalPerimeter;rounded=0;shadow=0;comic=0;labelBackgroundColor=none;strokeWidth=1;fontFamily=Verdana;fontSize=12;align=center;" parent="7baba1c4bc27f4b0-2" vertex="1">
                    <mxGeometry x="45" y="100" width="15" height="600" as="geometry"/>
                </mxCell>
                <mxCell id="M6jgfUpj3zySVkmpqYXh-17" value="" style="html=1;points=[];perimeter=orthogonalPerimeter;rounded=0;shadow=0;comic=0;labelBackgroundColor=none;strokeWidth=1;fontFamily=Verdana;fontSize=12;align=center;" parent="7baba1c4bc27f4b0-2" vertex="1">
                    <mxGeometry x="60" y="200" width="15" height="480" as="geometry"/>
                </mxCell>
                <mxCell id="M6jgfUpj3zySVkmpqYXh-25" style="edgeStyle=orthogonalEdgeStyle;rounded=0;orthogonalLoop=1;jettySize=auto;html=1;entryX=0.967;entryY=0.125;entryDx=0;entryDy=0;entryPerimeter=0;" parent="7baba1c4bc27f4b0-2" target="M6jgfUpj3zySVkmpqYXh-17" edge="1">
                    <mxGeometry relative="1" as="geometry">
                        <mxPoint x="76" y="210" as="sourcePoint"/>
                        <mxPoint x="74.995" y="446" as="targetPoint"/>
                        <Array as="points">
                            <mxPoint x="96" y="210"/>
                            <mxPoint x="96" y="240"/>
                        </Array>
                    </mxGeometry>
                </mxCell>
                <mxCell id="M6jgfUpj3zySVkmpqYXh-26" value="if (pokemonObj)" style="edgeLabel;html=1;align=center;verticalAlign=middle;resizable=0;points=[];fontFamily=Verdana;fontSize=12;" parent="M6jgfUpj3zySVkmpqYXh-25" vertex="1" connectable="0">
                    <mxGeometry x="-0.1048" relative="1" as="geometry">
                        <mxPoint x="54" y="-11" as="offset"/>
                    </mxGeometry>
                </mxCell>
                <mxCell id="7baba1c4bc27f4b0-3" value=":PokeAPI" style="shape=umlLifeline;perimeter=lifelinePerimeter;whiteSpace=wrap;html=1;container=1;collapsible=0;recursiveResize=0;outlineConnect=0;rounded=1;shadow=0;comic=0;labelBackgroundColor=none;strokeWidth=1;fontFamily=Verdana;fontSize=12;align=center;" parent="1" vertex="1">
                    <mxGeometry x="700" y="70" width="100" height="740" as="geometry"/>
                </mxCell>
                <mxCell id="7baba1c4bc27f4b0-13" value="" style="html=1;points=[];perimeter=orthogonalPerimeter;rounded=0;shadow=0;comic=0;labelBackgroundColor=none;strokeWidth=1;fontFamily=Verdana;fontSize=12;align=center;" parent="7baba1c4bc27f4b0-3" vertex="1">
                    <mxGeometry x="45" y="125" width="10" height="145" as="geometry"/>
                </mxCell>
                <mxCell id="7baba1c4bc27f4b0-4" value=":Repository" style="shape=umlLifeline;perimeter=lifelinePerimeter;whiteSpace=wrap;html=1;container=1;collapsible=0;recursiveResize=0;outlineConnect=0;rounded=1;shadow=0;comic=0;labelBackgroundColor=none;strokeWidth=1;fontFamily=Verdana;fontSize=12;align=center;" parent="1" vertex="1">
                    <mxGeometry x="850" y="70" width="100" height="740" as="geometry"/>
                </mxCell>
                <mxCell id="7baba1c4bc27f4b0-8" value=":Controller" style="shape=umlLifeline;perimeter=lifelinePerimeter;whiteSpace=wrap;html=1;container=1;collapsible=0;recursiveResize=0;outlineConnect=0;rounded=1;shadow=0;comic=0;labelBackgroundColor=none;strokeWidth=1;fontFamily=Verdana;fontSize=12;align=center;" parent="1" vertex="1">
                    <mxGeometry x="100" y="80" width="100" height="710" as="geometry"/>
                </mxCell>
                <mxCell id="7baba1c4bc27f4b0-9" value="" style="html=1;points=[];perimeter=orthogonalPerimeter;rounded=0;shadow=0;comic=0;labelBackgroundColor=none;strokeWidth=1;fontFamily=Verdana;fontSize=12;align=center;" parent="7baba1c4bc27f4b0-8" vertex="1">
                    <mxGeometry x="45" y="100" width="10" height="610" as="geometry"/>
                </mxCell>
                <mxCell id="7baba1c4bc27f4b0-11" value="post(ObjDto)" style="html=1;verticalAlign=bottom;endArrow=block;entryX=0;entryY=0;labelBackgroundColor=none;fontFamily=Verdana;fontSize=12;edgeStyle=elbowEdgeStyle;elbow=vertical;" parent="1" source="7baba1c4bc27f4b0-9" target="7baba1c4bc27f4b0-10" edge="1">
                    <mxGeometry relative="1" as="geometry">
                        <mxPoint x="220" y="190" as="sourcePoint"/>
                    </mxGeometry>
                </mxCell>
                <mxCell id="2" style="edgeStyle=none;html=1;" parent="1" source="7baba1c4bc27f4b0-10" target="7baba1c4bc27f4b0-3" edge="1">
                    <mxGeometry relative="1" as="geometry">
                        <Array as="points">
                            <mxPoint x="660" y="220"/>
                        </Array>
                    </mxGeometry>
                </mxCell>
                <mxCell id="4" value="&lt;font style=&quot;font-size: 12px;&quot; face=&quot;Verdana&quot;&gt;get(ObjDto.name)&lt;/font&gt;" style="edgeLabel;html=1;align=center;verticalAlign=middle;resizable=0;points=[];" parent="2" vertex="1" connectable="0">
                    <mxGeometry x="-0.1604" relative="1" as="geometry">
                        <mxPoint y="-10" as="offset"/>
                    </mxGeometry>
                </mxCell>
                <mxCell id="6" style="edgeStyle=none;html=1;fontFamily=Verdana;fontSize=12;entryX=0.933;entryY=0.135;entryDx=0;entryDy=0;entryPerimeter=0;dashed=1;" parent="1" source="7baba1c4bc27f4b0-3" target="7baba1c4bc27f4b0-10" edge="1">
                    <mxGeometry relative="1" as="geometry">
                        <Array as="points">
                            <mxPoint x="520" y="260"/>
                        </Array>
                        <mxPoint x="743.01" y="294.2" as="sourcePoint"/>
                        <mxPoint x="357.0049999999999" y="249.99999999999994" as="targetPoint"/>
                    </mxGeometry>
                </mxCell>
                <mxCell id="7" value="return(pokemonObj)" style="edgeLabel;html=1;align=center;verticalAlign=middle;resizable=0;points=[];fontSize=12;fontFamily=Verdana;" parent="6" vertex="1" connectable="0">
                    <mxGeometry x="0.1145" y="-1" relative="1" as="geometry">
                        <mxPoint x="125" y="-9" as="offset"/>
                    </mxGeometry>
                </mxCell>
                <mxCell id="M6jgfUpj3zySVkmpqYXh-27" value="&lt;div style=&quot;text-align: left;&quot;&gt;&lt;span style=&quot;background-color: initial;&quot;&gt;ObjEntity =&amp;nbsp;&lt;/span&gt;&lt;/div&gt;&lt;div style=&quot;text-align: left;&quot;&gt;(objDto.name,&amp;nbsp;&lt;/div&gt;&lt;div style=&quot;text-align: left;&quot;&gt;objDto.available,&lt;/div&gt;&lt;div style=&quot;text-align: left;&quot;&gt;objDto.account_created,&lt;/div&gt;&lt;div style=&quot;text-align: left;&quot;&gt;pokemonObj.weight,&lt;/div&gt;&lt;div style=&quot;text-align: left;&quot;&gt;pokemonObj.height&lt;br&gt;&lt;/div&gt;&lt;div style=&quot;text-align: left;&quot;&gt;pokemonObj.base_experience)&lt;br&gt;&lt;/div&gt;" style="whiteSpace=wrap;html=1;fontFamily=Verdana;rounded=0;shadow=0;comic=0;labelBackgroundColor=none;strokeWidth=1;" parent="1" vertex="1">
                    <mxGeometry x="450" y="350" width="230" height="180" as="geometry"/>
                </mxCell>
                <mxCell id="M6jgfUpj3zySVkmpqYXh-28" value="" style="edgeStyle=orthogonalEdgeStyle;rounded=0;orthogonalLoop=1;jettySize=auto;html=1;" parent="1" source="M6jgfUpj3zySVkmpqYXh-17" target="M6jgfUpj3zySVkmpqYXh-27" edge="1">
                    <mxGeometry relative="1" as="geometry">
                        <Array as="points">
                            <mxPoint x="390" y="440"/>
                            <mxPoint x="390" y="440"/>
                        </Array>
                    </mxGeometry>
                </mxCell>
                <mxCell id="M6jgfUpj3zySVkmpqYXh-29" style="edgeStyle=orthogonalEdgeStyle;rounded=0;orthogonalLoop=1;jettySize=auto;html=1;" parent="1" source="M6jgfUpj3zySVkmpqYXh-17" target="7baba1c4bc27f4b0-4" edge="1">
                    <mxGeometry relative="1" as="geometry">
                        <Array as="points">
                            <mxPoint x="500" y="620"/>
                            <mxPoint x="500" y="620"/>
                        </Array>
                    </mxGeometry>
                </mxCell>
                <mxCell id="M6jgfUpj3zySVkmpqYXh-30" value="create(objEntity)" style="edgeLabel;html=1;align=center;verticalAlign=middle;resizable=0;points=[];fontFamily=Verdana;fontSize=12;" parent="M6jgfUpj3zySVkmpqYXh-29" vertex="1" connectable="0">
                    <mxGeometry x="-0.5653" y="2" relative="1" as="geometry">
                        <mxPoint x="-39" y="-18" as="offset"/>
                    </mxGeometry>
                </mxCell>
                <mxCell id="M6jgfUpj3zySVkmpqYXh-31" style="edgeStyle=orthogonalEdgeStyle;rounded=0;orthogonalLoop=1;jettySize=auto;html=1;entryX=0.733;entryY=0.85;entryDx=0;entryDy=0;entryPerimeter=0;dashed=1;" parent="1" source="7baba1c4bc27f4b0-4" target="M6jgfUpj3zySVkmpqYXh-17" edge="1">
                    <mxGeometry relative="1" as="geometry">
                        <Array as="points">
                            <mxPoint x="760" y="688"/>
                            <mxPoint x="760" y="688"/>
                        </Array>
                    </mxGeometry>
                </mxCell>
                <mxCell id="M6jgfUpj3zySVkmpqYXh-32" value="return(entityObj)" style="edgeLabel;html=1;align=center;verticalAlign=middle;resizable=0;points=[];fontFamily=Verdana;fontSize=12;" parent="M6jgfUpj3zySVkmpqYXh-31" vertex="1" connectable="0">
                    <mxGeometry x="0.088" y="-2" relative="1" as="geometry">
                        <mxPoint x="-111" y="-16" as="offset"/>
                    </mxGeometry>
                </mxCell>
                <mxCell id="M6jgfUpj3zySVkmpqYXh-33" style="edgeStyle=orthogonalEdgeStyle;rounded=0;orthogonalLoop=1;jettySize=auto;html=1;entryX=1.1;entryY=0.492;entryDx=0;entryDy=0;entryPerimeter=0;dashed=1;" parent="1" edge="1">
                    <mxGeometry relative="1" as="geometry">
                        <mxPoint x="345" y="759.88" as="sourcePoint"/>
                        <mxPoint x="156" y="759.9999999999999" as="targetPoint"/>
                        <Array as="points">
                            <mxPoint x="200" y="760"/>
                            <mxPoint x="200" y="760"/>
                        </Array>
                    </mxGeometry>
                </mxCell>
                <mxCell id="M6jgfUpj3zySVkmpqYXh-34" value="&lt;span style=&quot;font-family: Verdana; font-size: 12px;&quot;&gt;return(entityObj)&lt;/span&gt;" style="edgeLabel;html=1;align=center;verticalAlign=middle;resizable=0;points=[];" parent="M6jgfUpj3zySVkmpqYXh-33" vertex="1" connectable="0">
                    <mxGeometry x="-0.3972" relative="1" as="geometry">
                        <mxPoint x="-42" y="-20" as="offset"/>
                    </mxGeometry>
                </mxCell>
            </root>
        </mxGraphModel>
    </diagram>
</mxfile>